{"title":"All.The.Kings.Men.2006.SWESUB.DVDRip.XviD.Zen_Bud","uid":5808658,"size":2105395458,"categoryP":"video","categoryS":"movies","magnet":"?xt=urn:btih:bdb145400fbc52a336c9a0e5cc2faf3e8ecb29d6&amp;dn=All.The.Kings.Men.2006.SWESUB.DVDRip.XviD.Zen_Bud&amp;tr=udp%3A%2F%2Ftracker.openbittorrent.com%3A80&amp;tr=udp%3A%2F%2Fopen.demonii.com%3A1337&amp;tr=udp%3A%2F%2Ftracker.coppersurfer.tk%3A6969&amp;tr=udp%3A%2F%2Fexodus.desync.com%3A6969","seeders":0,"leechers":0,"uploader":"Zen_Bud","files":-1,"time":1283542634,"description":"\n****** All.The.Kings.Men.2006.SWESUB.DVDRip.XviD.Zen_Bud.avi ******\n\n\nFormat                           : AVI\nFile size                        : 1.96 GiB\nDuration                         : 2h 2mn\nOverall bit rate                 : 2 286 Kbps\n\nVideo\n\nFormat                           : MPEG-4 Visual\nCodec ID/Hint                    : XviD\nDuration                         : 2h 2mn\nBit rate                         : 2 145 Kbps\nWidth                            : 720 pixels\nHeight                           : 552 pixels\nDisplay aspect ratio             : 1.855\nStream size                      : 1.84 GiB (94%)\nWriting library                  : XviD 1.1.2 (UTC 2006-11-01)\n\nAudio\n\nFormat                           : MPEG Audio\nCodec ID/Hint                    : MP3\nDuration                         : 2h 2mn\nBit rate                         : 128 Kbps\nChannel(s)                       : 2 channels\nSampling rate                    : 48.0 KHz\nStream size                      : 112 MiB (6%)\nWriting library                  : LAME3.98\n\n","torrent":{"xt":"urn:btih:bdb145400fbc52a336c9a0e5cc2faf3e8ecb29d6","amp;dn":"All.The.Kings.Men.2006.SWESUB.DVDRip.XviD.Zen_Bud","amp;tr":["udp%3A%2F%2Ftracker.openbittorrent.com%3A80","udp%3A%2F%2Fopen.demonii.com%3A1337","udp%3A%2F%2Ftracker.coppersurfer.tk%3A6969","udp%3A%2F%2Fexodus.desync.com%3A6969"],"infoHash":"bdb145400fbc52a336c9a0e5cc2faf3e8ecb29d6","infoHashBuffer":{"type":"Buffer","data":[189,177,69,64,15,188,82,163,54,201,160,229,204,47,175,62,142,203,41,214]},"announce":[],"urlList":[]}}